# Blender 4.4.3
# www.blender.org
mtllib Aircraft_Carrier(low_poly).mtl
o Plane
v -1.000000 0.000000 1.000000
v 1.000000 0.000000 1.000000
v -1.000000 0.000000 -1.000000
v 1.000000 0.000000 -1.000000
v -1.000000 2.020385 1.000000
v 1.000000 2.020385 1.000000
v -1.000000 2.020385 -1.000000
v 1.000000 2.020385 -1.000000
v -1.000000 0.000000 7.573224
v 1.000000 0.000000 7.573224
v -1.000000 2.020385 7.573224
v 1.000000 2.020385 7.573224
v -1.000000 0.000000 9.930534
v 1.000000 0.000000 9.930534
v -1.000000 2.020385 9.930534
v 1.000000 2.020385 9.930534
vn -0.0000 -1.0000 -0.0000
vn -0.0000 1.0000 -0.0000
vn 1.0000 -0.0000 -0.0000
vn -1.0000 -0.0000 -0.0000
vn -0.0000 -0.0000 -1.0000
vn -0.0000 -0.0000 1.0000
vt 0.000000 0.000000
vt 0.000000 1.000000
vt 1.000000 1.000000
vt 1.000000 0.000000
s 0
f 1/1/1 3/2/1 4/3/1 2/4/1
f 5/1/2 6/4/2 8/3/2 7/2/2
f 2/4/3 4/3/3 8/3/3 6/4/3
f 3/2/4 1/1/4 5/1/4 7/2/4
f 4/3/5 3/2/5 7/2/5 8/3/5
f 2/4/3 6/4/3 12/4/3 10/4/3
f 11/1/4 9/1/4 13/1/4 15/1/4
f 6/4/2 5/1/2 11/1/2 12/4/2
f 1/1/1 2/4/1 10/4/1 9/1/1
f 5/1/4 1/1/4 9/1/4 11/1/4
f 13/1/6 14/4/6 16/4/6 15/1/6
f 12/4/2 11/1/2 15/1/2 16/4/2
f 10/4/3 12/4/3 16/4/3 14/4/3
f 9/1/1 10/4/1 14/4/1 13/1/1
