# Blender 4.4.3
# www.blender.org
mtllib Aircraft_Carrier(low_poly).mtl
o Hull
v -8.000000 0.597071 1.800000
v -8.000000 1.597071 1.800000
v -8.000000 0.597071 -1.800000
v -8.000000 1.597071 -1.800000
v 8.000000 0.597071 1.800000
v 8.000000 1.597071 1.800000
v 8.000000 0.597071 -1.800000
v 8.000000 1.597071 -1.800000
vn -1.0000 -0.0000 -0.0000
vn -0.0000 -0.0000 -1.0000
vn 1.0000 -0.0000 -0.0000
vn -0.0000 -0.0000 1.0000
vn -0.0000 -1.0000 -0.0000
vn -0.0000 1.0000 -0.0000
vt 0.375000 0.000000
vt 0.625000 0.000000
vt 0.625000 0.250000
vt 0.375000 0.250000
vt 0.625000 0.500000
vt 0.375000 0.500000
vt 0.625000 0.750000
vt 0.375000 0.750000
vt 0.625000 1.000000
vt 0.375000 1.000000
vt 0.125000 0.500000
vt 0.125000 0.750000
vt 0.875000 0.500000
vt 0.875000 0.750000
s 0
usemtl Hull_Material
f 1/1/1 2/2/1 4/3/1 3/4/1
f 3/4/2 4/3/2 8/5/2 7/6/2
f 7/6/3 8/5/3 6/7/3 5/8/3
f 5/8/4 6/7/4 2/9/4 1/10/4
f 3/11/5 7/6/5 5/8/5 1/12/5
f 8/5/6 4/13/6 2/14/6 6/7/6
o Deck
v -8.456942 1.701839 1.892374
v 8.456942 1.701839 1.892374
v -8.456942 1.701839 -1.892374
v 8.456942 1.701839 -1.892374
v -7.171999 1.394001 1.604847
v 7.171999 1.394001 1.604847
v -7.171999 1.394001 -1.604847
v 7.171999 1.394001 -1.604847
vn -0.0000 -1.0000 -0.0000
vn -0.0000 1.0000 -0.0000
vn -0.0000 0.6826 0.7308
vn -0.0000 0.6826 -0.7308
vn -0.2330 0.9725 -0.0000
vn 0.2330 0.9725 -0.0000
vt 0.000000 0.000000
vt 0.000000 1.000000
vt 1.000000 1.000000
vt 1.000000 0.000000
s 0
usemtl Hull_Material
f 9/15/7 11/16/7 12/17/7 10/18/7
f 13/15/8 14/18/8 16/17/8 15/16/8
f 12/17/9 11/16/9 15/16/9 16/17/9
f 9/15/10 10/18/10 14/18/10 13/15/10
f 10/18/11 12/17/11 16/17/11 14/18/11
f 11/16/12 9/15/12 13/15/12 15/16/12
o Island
v 1.000000 1.597071 0.500000
v 1.000000 3.597071 0.500000
v 1.000000 1.597071 -0.500000
v 1.000000 3.597071 -0.500000
v 3.000000 1.597071 0.500000
v 3.000000 3.597071 0.500000
v 3.000000 1.597071 -0.500000
v 3.000000 3.597071 -0.500000
vn -1.0000 -0.0000 -0.0000
vn -0.0000 -0.0000 -1.0000
vn 1.0000 -0.0000 -0.0000
vn -0.0000 -0.0000 1.0000
vn -0.0000 -1.0000 -0.0000
vn -0.0000 1.0000 -0.0000
vt 0.375000 0.000000
vt 0.625000 0.000000
vt 0.625000 0.250000
vt 0.375000 0.250000
vt 0.625000 0.500000
vt 0.375000 0.500000
vt 0.625000 0.750000
vt 0.375000 0.750000
vt 0.625000 1.000000
vt 0.375000 1.000000
vt 0.125000 0.500000
vt 0.125000 0.750000
vt 0.875000 0.500000
vt 0.875000 0.750000
s 0
usemtl Hull_Material
f 17/19/13 18/20/13 20/21/13 19/22/13
f 19/22/14 20/21/14 24/23/14 23/24/14
f 23/24/15 24/23/15 22/25/15 21/26/15
f 21/26/16 22/25/16 18/27/16 17/28/16
f 19/29/17 23/24/17 21/26/17 17/30/17
f 24/23/18 20/31/18 18/32/18 22/25/18
o Antenna
v 1.966345 3.597071 -0.094167
v 1.966345 5.597071 -0.094167
v 1.985363 3.597071 -0.098923
v 1.985363 5.597071 -0.098923
v 2.004943 3.597071 -0.099878
v 2.004943 5.597071 -0.099878
v 2.024333 3.597071 -0.096994
v 2.024333 5.597071 -0.096994
v 2.042788 3.597071 -0.090384
v 2.042788 5.597071 -0.090384
v 2.059599 3.597071 -0.080299
v 2.059599 5.597071 -0.080299
v 2.074119 3.597071 -0.067129
v 2.074119 5.597071 -0.067129
v 2.085791 3.597071 -0.051379
v 2.085791 5.597071 -0.051379
v 2.094167 3.597071 -0.033655
v 2.094167 5.597071 -0.033655
v 2.098923 3.597071 -0.014637
v 2.098923 5.597071 -0.014637
v 2.099878 3.597071 0.004943
v 2.099878 5.597071 0.004943
v 2.096994 3.597071 0.024333
v 2.096994 5.597071 0.024333
v 2.090384 3.597071 0.042788
v 2.090384 5.597071 0.042788
v 2.080299 3.597071 0.059599
v 2.080299 5.597071 0.059599
v 2.067129 3.597071 0.074119
v 2.067129 5.597071 0.074119
v 2.051379 3.597071 0.085791
v 2.051379 5.597071 0.085791
v 2.033655 3.597071 0.094167
v 2.033655 5.597071 0.094167
v 2.014637 3.597071 0.098923
v 2.014637 5.597071 0.098923
v 1.995057 3.597071 0.099878
v 1.995057 5.597071 0.099878
v 1.975667 3.597071 0.096994
v 1.975667 5.597071 0.096994
v 1.957212 3.597071 0.090384
v 1.957212 5.597071 0.090384
v 1.940401 3.597071 0.080299
v 1.940401 5.597071 0.080299
v 1.925881 3.597071 0.067129
v 1.925881 5.597071 0.067129
v 1.914209 3.597071 0.051379
v 1.914209 5.597071 0.051379
v 1.905833 3.597071 0.033655
v 1.905833 5.597071 0.033655
v 1.901077 3.597071 0.014637
v 1.901077 5.597071 0.014637
v 1.900122 3.597071 -0.004943
v 1.900122 5.597071 -0.004943
v 1.903006 3.597071 -0.024333
v 1.903006 5.597071 -0.024333
v 1.909616 3.597071 -0.042788
v 1.909616 5.597071 -0.042788
v 1.919701 3.597071 -0.059599
v 1.919701 5.597071 -0.059599
v 1.932871 3.597071 -0.074119
v 1.932871 5.597071 -0.074119
v 1.948621 3.597071 -0.085791
v 1.948621 5.597071 -0.085791
vn -0.2426 -0.0000 -0.9701
vn -0.0487 -0.0000 -0.9988
vn 0.1471 -0.0000 -0.9891
vn 0.3372 -0.0000 -0.9414
vn 0.5144 -0.0000 -0.8575
vn 0.6718 -0.0000 -0.7407
vn 0.8034 -0.0000 -0.5954
vn 0.9041 -0.0000 -0.4272
vn 0.9701 -0.0000 -0.2426
vn 0.9988 -0.0000 -0.0487
vn 0.9891 -0.0000 0.1471
vn 0.9414 -0.0000 0.3372
vn 0.8575 -0.0000 0.5144
vn 0.7407 -0.0000 0.6718
vn 0.5954 -0.0000 0.8034
vn 0.4272 -0.0000 0.9041
vn 0.2426 -0.0000 0.9701
vn 0.0487 -0.0000 0.9988
vn -0.1471 -0.0000 0.9891
vn -0.3372 -0.0000 0.9414
vn -0.5144 -0.0000 0.8575
vn -0.6718 -0.0000 0.7407
vn -0.8034 -0.0000 0.5954
vn -0.9041 -0.0000 0.4272
vn -0.9701 -0.0000 0.2426
vn -0.9988 -0.0000 0.0487
vn -0.9891 -0.0000 -0.1471
vn -0.9414 -0.0000 -0.3372
vn -0.8575 -0.0000 -0.5144
vn -0.7407 -0.0000 -0.6718
vn -0.0000 1.0000 -0.0000
vn -0.5954 -0.0000 -0.8034
vn -0.4272 -0.0000 -0.9041
vn -0.0000 -1.0000 -0.0000
vt 1.000000 0.500000
vt 1.000000 1.000000
vt 0.968750 1.000000
vt 0.968750 0.500000
vt 0.937500 1.000000
vt 0.937500 0.500000
vt 0.906250 1.000000
vt 0.906250 0.500000
vt 0.875000 1.000000
vt 0.875000 0.500000
vt 0.843750 1.000000
vt 0.843750 0.500000
vt 0.812500 1.000000
vt 0.812500 0.500000
vt 0.781250 1.000000
vt 0.781250 0.500000
vt 0.750000 1.000000
vt 0.750000 0.500000
vt 0.718750 1.000000
vt 0.718750 0.500000
vt 0.687500 1.000000
vt 0.687500 0.500000
vt 0.656250 1.000000
vt 0.656250 0.500000
vt 0.625000 1.000000
vt 0.625000 0.500000
vt 0.593750 1.000000
vt 0.593750 0.500000
vt 0.562500 1.000000
vt 0.562500 0.500000
vt 0.531250 1.000000
vt 0.531250 0.500000
vt 0.500000 1.000000
vt 0.500000 0.500000
vt 0.468750 1.000000
vt 0.468750 0.500000
vt 0.437500 1.000000
vt 0.437500 0.500000
vt 0.406250 1.000000
vt 0.406250 0.500000
vt 0.375000 1.000000
vt 0.375000 0.500000
vt 0.343750 1.000000
vt 0.343750 0.500000
vt 0.312500 1.000000
vt 0.312500 0.500000
vt 0.281250 1.000000
vt 0.281250 0.500000
vt 0.250000 1.000000
vt 0.250000 0.500000
vt 0.218750 1.000000
vt 0.218750 0.500000
vt 0.187500 1.000000
vt 0.187500 0.500000
vt 0.156250 1.000000
vt 0.156250 0.500000
vt 0.125000 1.000000
vt 0.125000 0.500000
vt 0.093750 1.000000
vt 0.093750 0.500000
vt 0.062500 1.000000
vt 0.062500 0.500000
vt 0.296822 0.485388
vt 0.250000 0.490000
vt 0.203178 0.485388
vt 0.158156 0.471731
vt 0.116663 0.449553
vt 0.080294 0.419706
vt 0.050447 0.383337
vt 0.028269 0.341844
vt 0.014612 0.296822
vt 0.010000 0.250000
vt 0.014612 0.203178
vt 0.028269 0.158156
vt 0.050447 0.116663
vt 0.080294 0.080294
vt 0.116663 0.050447
vt 0.158156 0.028269
vt 0.203178 0.014612
vt 0.250000 0.010000
vt 0.296822 0.014612
vt 0.341844 0.028269
vt 0.383337 0.050447
vt 0.419706 0.080294
vt 0.449553 0.116663
vt 0.471731 0.158156
vt 0.485388 0.203178
vt 0.490000 0.250000
vt 0.485388 0.296822
vt 0.471731 0.341844
vt 0.449553 0.383337
vt 0.419706 0.419706
vt 0.383337 0.449553
vt 0.341844 0.471731
vt 0.031250 1.000000
vt 0.031250 0.500000
vt 0.000000 1.000000
vt 0.000000 0.500000
vt 0.750000 0.490000
vt 0.796822 0.485388
vt 0.841844 0.471731
vt 0.883337 0.449553
vt 0.919706 0.419706
vt 0.949553 0.383337
vt 0.971731 0.341844
vt 0.985388 0.296822
vt 0.990000 0.250000
vt 0.985388 0.203178
vt 0.971731 0.158156
vt 0.949553 0.116663
vt 0.919706 0.080294
vt 0.883337 0.050447
vt 0.841844 0.028269
vt 0.796822 0.014612
vt 0.750000 0.010000
vt 0.703178 0.014612
vt 0.658156 0.028269
vt 0.616663 0.050447
vt 0.580294 0.080294
vt 0.550447 0.116663
vt 0.528269 0.158156
vt 0.514612 0.203178
vt 0.510000 0.250000
vt 0.514612 0.296822
vt 0.528269 0.341844
vt 0.550447 0.383337
vt 0.580294 0.419706
vt 0.616663 0.449553
vt 0.658156 0.471731
vt 0.703178 0.485388
s 0
usemtl Hull_Material
f 25/33/19 26/34/19 28/35/19 27/36/19
f 27/36/20 28/35/20 30/37/20 29/38/20
f 29/38/21 30/37/21 32/39/21 31/40/21
f 31/40/22 32/39/22 34/41/22 33/42/22
f 33/42/23 34/41/23 36/43/23 35/44/23
f 35/44/24 36/43/24 38/45/24 37/46/24
f 37/46/25 38/45/25 40/47/25 39/48/25
f 39/48/26 40/47/26 42/49/26 41/50/26
f 41/50/27 42/49/27 44/51/27 43/52/27
f 43/52/28 44/51/28 46/53/28 45/54/28
f 45/54/29 46/53/29 48/55/29 47/56/29
f 47/56/30 48/55/30 50/57/30 49/58/30
f 49/58/31 50/57/31 52/59/31 51/60/31
f 51/60/32 52/59/32 54/61/32 53/62/32
f 53/62/33 54/61/33 56/63/33 55/64/33
f 55/64/34 56/63/34 58/65/34 57/66/34
f 57/66/35 58/65/35 60/67/35 59/68/35
f 59/68/36 60/67/36 62/69/36 61/70/36
f 61/70/37 62/69/37 64/71/37 63/72/37
f 63/72/38 64/71/38 66/73/38 65/74/38
f 65/74/39 66/73/39 68/75/39 67/76/39
f 67/76/40 68/75/40 70/77/40 69/78/40
f 69/78/41 70/77/41 72/79/41 71/80/41
f 71/80/42 72/79/42 74/81/42 73/82/42
f 73/82/43 74/81/43 76/83/43 75/84/43
f 75/84/44 76/83/44 78/85/44 77/86/44
f 77/86/45 78/85/45 80/87/45 79/88/45
f 79/88/46 80/87/46 82/89/46 81/90/46
f 81/90/47 82/89/47 84/91/47 83/92/47
f 83/92/48 84/91/48 86/93/48 85/94/48
f 28/95/49 26/96/49 88/97/49 86/98/49 84/99/49 82/100/49 80/101/49 78/102/49 76/103/49 74/104/49 72/105/49 70/106/49 68/107/49 66/108/49 64/109/49 62/110/49 60/111/49 58/112/49 56/113/49 54/114/49 52/115/49 50/116/49 48/117/49 46/118/49 44/119/49 42/120/49 40/121/49 38/122/49 36/123/49 34/124/49 32/125/49 30/126/49
f 85/94/50 86/93/50 88/127/50 87/128/50
f 87/128/51 88/127/51 26/129/51 25/130/51
f 25/131/52 27/132/52 29/133/52 31/134/52 33/135/52 35/136/52 37/137/52 39/138/52 41/139/52 43/140/52 45/141/52 47/142/52 49/143/52 51/144/52 53/145/52 55/146/52 57/147/52 59/148/52 61/149/52 63/150/52 65/151/52 67/152/52 69/153/52 71/154/52 73/155/52 75/156/52 77/157/52 79/158/52 81/159/52 83/160/52 85/161/52 87/162/52
